<!-- Generated by IcoMoon.io -->
<svg version="1.1" xmlns="http://www.w3.org/2000/svg" width="32" height="32" viewBox="0 0 32 32">
<title>instagram-icon</title>
<path fill="#f38181" d="M27.962 31.988h-23.981c-2.207 0-3.997-1.789-3.997-3.997v0-23.981c0-2.207 1.789-3.997 3.997-3.997v0h23.981c2.207 0 3.997 1.789 3.997 3.997v0 23.981c0 2.207-1.789 3.997-3.997 3.997v0zM15.971 9.805c-0 0-0.001 0-0.001 0-2.478 0-4.615 1.456-5.603 3.559l-0.016 0.038c-0.008 0.024-0.017 0.045-0.028 0.064l0.001-0.001c-0.059 0.137-0.11 0.275-0.16 0.412-0.024 0.062-0.050 0.125-0.071 0.187-0.046 0.137-0.084 0.287-0.125 0.425-0.018 0.062-0.037 0.137-0.052 0.2-0.032 0.15-0.055 0.3-0.076 0.462-0.009 0.062-0.021 0.125-0.029 0.187-0.023 0.198-0.036 0.428-0.036 0.661v0.001c0 3.422 2.774 6.195 6.195 6.195s6.195-2.774 6.195-6.195v0c-0.001-0.234-0.014-0.464-0.039-0.691l0.003 0.029c-0.008-0.062-0.020-0.125-0.029-0.187-0.021-0.162-0.044-0.312-0.076-0.462-0.015-0.062-0.035-0.137-0.052-0.2-0.035-0.137-0.072-0.287-0.125-0.425-0.021-0.062-0.047-0.125-0.071-0.187-0.050-0.137-0.101-0.275-0.16-0.412-0.011-0.018-0.020-0.039-0.027-0.060l-0.001-0.002c-1.004-2.14-3.139-3.596-5.615-3.597h-0zM28.362 5.208c0-0.001 0-0.002 0-0.003 0-0.882-0.715-1.596-1.596-1.596-0.001 0-0.002 0-0.003 0h-3.197c-0.001 0-0.002 0-0.003 0-0.882 0-1.596 0.715-1.596 1.596 0 0.001 0 0.002 0 0.003v-0 3.198c0 0.001 0 0.002 0 0.002 0 0.882 0.715 1.596 1.596 1.596 0.001 0 0.002 0 0.003 0h3.197c0.001 0 0.002 0 0.003 0 0.882 0 1.596-0.715 1.596-1.596 0-0.001 0-0.002 0-0.003v0-3.197zM28.362 13.402h-2.948c0.222 0.778 0.35 1.671 0.35 2.594 0 5.408-4.384 9.792-9.792 9.792s-9.792-4.384-9.792-9.792c0-0.923 0.128-1.816 0.366-2.663l-0.017 0.069h-2.948v13.39c0 0.001 0 0.002 0 0.003 0 0.882 0.715 1.596 1.596 1.596 0.001 0 0.002 0 0.003 0h21.583c0.001 0 0.002 0 0.003 0 0.882 0 1.596-0.715 1.596-1.596 0-0.001 0-0.002 0-0.003v0-13.39z"></path>
</svg>
