<!-- Generated by IcoMoon.io -->
<svg version="1.1" xmlns="http://www.w3.org/2000/svg" width="32" height="32" viewBox="0 0 32 32">
<title>magnify-icon</title>
<path fill="#fff" d="M31.101 26.862c0.541 0.543 0.876 1.292 0.876 2.119 0 1.657-1.343 3-3 3-0.83 0-1.581-0.337-2.124-0.881l-0-0-8.769-8.78c-1.753 1.056-3.87 1.68-6.132 1.68-6.645 0-12.032-5.387-12.032-12.032s5.387-12.032 12.032-12.032c6.645 0 12.032 5.387 12.032 12.032 0 2.255-0.62 4.365-1.7 6.169l0.030-0.055 8.788 8.78zM12.001 3.016c-4.963 0-8.987 4.024-8.987 8.987s4.024 8.987 8.987 8.987c4.963 0 8.987-4.024 8.987-8.987v0c-0.003-4.962-4.025-8.984-8.987-8.987h-0z"></path>
</svg>
